<svg width="116" height="31" viewBox="0 0 116 31" fill="none" xmlns="http://www.w3.org/2000/svg">
<path d="M115.694 6.7019V9.99878H107.069V6.7019H115.694ZM109.053 2.53003H113.413V18.4519C113.413 18.9207 113.459 19.28 113.553 19.53C113.647 19.78 113.788 19.9571 113.975 20.0613C114.173 20.155 114.433 20.2019 114.756 20.2019C114.975 20.2019 115.178 20.1915 115.366 20.1707C115.553 20.1394 115.694 20.1082 115.788 20.0769V23.4988C115.444 23.6342 115.079 23.7384 114.694 23.8113C114.319 23.8842 113.871 23.9207 113.35 23.9207C112.475 23.9207 111.715 23.754 111.069 23.4207C110.433 23.0873 109.939 22.5561 109.584 21.8269C109.23 21.0873 109.053 20.1186 109.053 18.9207V2.53003Z" fill="black"/>
<path d="M91.8813 15.7332V14.5925C91.8813 13.2696 92.0376 12.0977 92.3501 11.0769C92.673 10.0561 93.1313 9.2019 93.7251 8.5144C94.3188 7.81649 95.0324 7.29045 95.8657 6.93628C96.7095 6.5717 97.6522 6.3894 98.6938 6.3894C99.7459 6.3894 100.689 6.5717 101.522 6.93628C102.366 7.29045 103.084 7.81649 103.678 8.5144C104.282 9.2019 104.746 10.0561 105.069 11.0769C105.392 12.0977 105.553 13.2696 105.553 14.5925V15.7332C105.553 17.0457 105.392 18.2123 105.069 19.2332C104.746 20.254 104.282 21.1134 103.678 21.8113C103.084 22.5092 102.371 23.0352 101.538 23.3894C100.704 23.7436 99.7668 23.9207 98.7251 23.9207C97.6834 23.9207 96.7407 23.7436 95.897 23.3894C95.0636 23.0352 94.3449 22.5092 93.7407 21.8113C93.1366 21.1134 92.673 20.254 92.3501 19.2332C92.0376 18.2123 91.8813 17.0457 91.8813 15.7332ZM96.2563 14.5925V15.7332C96.2563 16.5144 96.3084 17.1915 96.4126 17.7644C96.5272 18.3373 96.6886 18.8113 96.897 19.1863C97.1157 19.5613 97.3761 19.8373 97.6782 20.0144C97.9803 20.1915 98.3293 20.28 98.7251 20.28C99.1209 20.28 99.4751 20.1915 99.7876 20.0144C100.1 19.8373 100.355 19.5613 100.553 19.1863C100.762 18.8113 100.913 18.3373 101.006 17.7644C101.111 17.1915 101.163 16.5144 101.163 15.7332V14.5925C101.163 13.8321 101.105 13.1654 100.991 12.5925C100.876 12.0092 100.715 11.5352 100.506 11.1707C100.298 10.7957 100.038 10.5144 99.7251 10.3269C99.423 10.129 99.0793 10.03 98.6938 10.03C98.3084 10.03 97.9647 10.129 97.6626 10.3269C97.3709 10.5144 97.1157 10.7957 96.897 11.1707C96.6886 11.5352 96.5272 12.0092 96.4126 12.5925C96.3084 13.1654 96.2563 13.8321 96.2563 14.5925Z" fill="black"/>
<path d="M80.9126 9.9519V30.1082H76.5532V6.7019H80.5845L80.9126 9.9519ZM89.6938 14.5769V15.7019C89.6938 17.0248 89.5793 18.1967 89.3501 19.2175C89.1209 20.2279 88.7772 21.0873 88.3188 21.7957C87.8709 22.4936 87.3084 23.0248 86.6313 23.3894C85.9543 23.7436 85.1626 23.9207 84.2563 23.9207C83.4126 23.9207 82.6834 23.7227 82.0688 23.3269C81.4647 22.9207 80.9543 22.3634 80.5376 21.655C80.1209 20.9467 79.7876 20.1186 79.5376 19.1707C79.2876 18.2227 79.0949 17.2071 78.9595 16.1238V14.3738C79.0845 13.2175 79.2668 12.155 79.5063 11.1863C79.7459 10.2071 80.0741 9.35815 80.4907 8.6394C80.9178 7.92065 81.4334 7.36857 82.0376 6.98315C82.6522 6.58732 83.3813 6.3894 84.2251 6.3894C85.1418 6.3894 85.9386 6.55607 86.6157 6.8894C87.3032 7.22274 87.8709 7.72795 88.3188 8.40503C88.7772 9.0717 89.1209 9.92065 89.3501 10.9519C89.5793 11.9832 89.6938 13.1915 89.6938 14.5769ZM85.3188 15.7019V14.5769C85.3188 13.7644 85.272 13.0717 85.1782 12.4988C85.0949 11.9259 84.9595 11.4571 84.772 11.0925C84.5845 10.7279 84.3397 10.4623 84.0376 10.2957C83.7355 10.129 83.3657 10.0457 82.9282 10.0457C82.5011 10.0457 82.1261 10.129 81.8032 10.2957C81.4907 10.4623 81.2355 10.7071 81.0376 11.03C80.8397 11.3425 80.6886 11.7279 80.5845 12.1863C80.4803 12.6342 80.423 13.1446 80.4126 13.7175V16.78C80.4334 17.4571 80.522 18.0561 80.6782 18.5769C80.8449 19.0977 81.1105 19.5144 81.4751 19.8269C81.8397 20.129 82.3345 20.28 82.9595 20.28C83.4074 20.28 83.7772 20.1863 84.0688 19.9988C84.3709 19.8113 84.6157 19.53 84.8032 19.155C84.9907 18.78 85.1209 18.3061 85.1938 17.7332C85.2772 17.1602 85.3188 16.4832 85.3188 15.7019Z" fill="black"/>
<path d="M69.1001 17.6238C69.1001 17.2175 69.0636 16.8477 68.9907 16.5144C68.9178 16.1811 68.7616 15.8738 68.522 15.5925C68.2928 15.3113 67.9543 15.03 67.5063 14.7488C67.0688 14.4675 66.4959 14.1759 65.7876 13.8738C64.9438 13.5196 64.1261 13.1446 63.3345 12.7488C62.5428 12.3425 61.8293 11.8738 61.1938 11.3425C60.5584 10.8113 60.0532 10.1863 59.6782 9.46753C59.3136 8.73836 59.1313 7.8842 59.1313 6.90503C59.1313 5.9467 59.3032 5.0769 59.647 4.29565C60.0011 3.5144 60.5011 2.84774 61.147 2.29565C61.7928 1.73315 62.548 1.30086 63.4126 0.998779C64.2876 0.696696 65.2616 0.545654 66.3345 0.545654C67.7928 0.545654 69.0532 0.847738 70.1157 1.4519C71.1886 2.05607 72.0168 2.8842 72.6001 3.93628C73.1938 4.98836 73.4907 6.1967 73.4907 7.56128H68.9282C68.9282 6.91545 68.8345 6.34774 68.647 5.85815C68.4699 5.35815 68.1834 4.96753 67.7876 4.68628C67.3918 4.40503 66.8813 4.2644 66.2563 4.2644C65.673 4.2644 65.1886 4.3842 64.8032 4.62378C64.4282 4.85295 64.147 5.17065 63.9595 5.5769C63.7824 5.97274 63.6938 6.42065 63.6938 6.92065C63.6938 7.29565 63.7824 7.6342 63.9595 7.93628C64.147 8.22795 64.4022 8.49357 64.7251 8.73315C65.048 8.96232 65.4282 9.18628 65.8657 9.40503C66.3136 9.62378 66.8032 9.83732 67.3345 10.0457C68.3657 10.4519 69.2772 10.8998 70.0688 11.3894C70.8605 11.8686 71.522 12.4102 72.0532 13.0144C72.5845 13.6082 72.9855 14.28 73.2563 15.03C73.5272 15.78 73.6626 16.6342 73.6626 17.5925C73.6626 18.5404 73.4959 19.405 73.1626 20.1863C72.8397 20.9571 72.3657 21.6238 71.7407 22.1863C71.1157 22.7384 70.3605 23.1654 69.4751 23.4675C68.6001 23.7696 67.6209 23.9207 66.5376 23.9207C65.4855 23.9207 64.4907 23.7748 63.5532 23.4832C62.6157 23.1811 61.7876 22.7279 61.0688 22.1238C60.3605 21.5092 59.8032 20.7332 59.397 19.7957C58.9907 18.8477 58.7876 17.7279 58.7876 16.4363H63.3657C63.3657 17.1238 63.4334 17.7123 63.5688 18.2019C63.7043 18.6811 63.9126 19.0665 64.1938 19.3582C64.4751 19.6394 64.8188 19.8529 65.2251 19.9988C65.6418 20.1342 66.1157 20.2019 66.647 20.2019C67.2511 20.2019 67.7303 20.0873 68.0845 19.8582C68.4491 19.629 68.7095 19.3217 68.8657 18.9363C69.022 18.5509 69.1001 18.1134 69.1001 17.6238Z" fill="black"/>
<path d="M52.2251 19.0457C52.2251 18.754 52.1261 18.4936 51.9282 18.2644C51.7303 18.0352 51.4178 17.8009 50.9907 17.5613C50.5636 17.3113 49.9959 17.0352 49.2876 16.7332C48.5168 16.4207 47.8345 16.0977 47.2407 15.7644C46.647 15.4311 46.1418 15.0613 45.7251 14.655C45.3188 14.2488 45.0116 13.7852 44.8032 13.2644C44.5949 12.7436 44.4907 12.1498 44.4907 11.4832C44.4907 10.7644 44.6209 10.1029 44.8813 9.49878C45.1522 8.8842 45.5376 8.34774 46.0376 7.8894C46.5376 7.42065 47.147 7.05607 47.8657 6.79565C48.5949 6.52482 49.4126 6.3894 50.3188 6.3894C51.5897 6.3894 52.6782 6.61336 53.5845 7.06128C54.5011 7.49878 55.2043 8.11336 55.6938 8.90503C56.1834 9.6967 56.4282 10.6186 56.4282 11.6707H52.0532C52.0532 11.2957 51.9959 10.9623 51.8813 10.6707C51.7668 10.3686 51.5793 10.1342 51.3188 9.96753C51.0688 9.80086 50.7303 9.71753 50.3032 9.71753C49.9907 9.71753 49.7095 9.78524 49.4595 9.92065C49.2199 10.0561 49.0272 10.2384 48.8813 10.4675C48.7459 10.6863 48.6782 10.9467 48.6782 11.2488C48.6782 11.4779 48.7251 11.6811 48.8188 11.8582C48.923 12.0352 49.0845 12.2071 49.3032 12.3738C49.522 12.5404 49.8136 12.7175 50.1782 12.905C50.5532 13.0821 51.0116 13.28 51.5532 13.4988C52.6782 13.9154 53.6001 14.3634 54.3188 14.8425C55.048 15.3217 55.5897 15.8842 55.9438 16.53C56.298 17.1654 56.4751 17.9519 56.4751 18.8894C56.4751 19.6394 56.3293 20.3217 56.0376 20.9363C55.7563 21.5509 55.3449 22.0821 54.8032 22.53C54.2616 22.9779 53.6105 23.3217 52.8501 23.5613C52.1001 23.8009 51.2616 23.9207 50.3345 23.9207C48.9699 23.9207 47.8188 23.6498 46.8813 23.1082C45.9438 22.5665 45.2355 21.8738 44.7563 21.03C44.2772 20.1759 44.0376 19.2904 44.0376 18.3738H48.1938C48.2147 18.9363 48.3188 19.379 48.5063 19.7019C48.7043 20.0144 48.9699 20.2332 49.3032 20.3582C49.6366 20.4832 50.0063 20.5457 50.4126 20.5457C50.8188 20.5457 51.1522 20.4936 51.4126 20.3894C51.6834 20.2748 51.8866 20.1029 52.022 19.8738C52.1574 19.6342 52.2251 19.3582 52.2251 19.0457Z" fill="#0147FF"/>
<path d="M38.5063 10.4675V23.6082H34.1313V6.7019H38.2563L38.5063 10.4675ZM42.4907 6.5769L42.4282 10.9363C42.2303 10.8946 41.9907 10.8634 41.7095 10.8425C41.4386 10.8217 41.1991 10.8113 40.9907 10.8113C40.5011 10.8113 40.0845 10.8894 39.7407 11.0457C39.397 11.1915 39.1105 11.4154 38.8813 11.7175C38.6626 12.0092 38.4959 12.3738 38.3813 12.8113C38.2668 13.2488 38.1991 13.7436 38.1782 14.2957L37.3501 13.9832C37.3501 12.879 37.4334 11.8686 37.6001 10.9519C37.7772 10.0248 38.0376 9.22274 38.3813 8.54565C38.7251 7.85815 39.1366 7.3269 39.6157 6.9519C40.1053 6.5769 40.6574 6.3894 41.272 6.3894C41.4803 6.3894 41.6991 6.41024 41.9282 6.4519C42.1678 6.48315 42.3553 6.52482 42.4907 6.5769Z" fill="#0147FF"/>
<path d="M26.4907 19.7175V11.905C26.4907 11.3946 26.4282 10.9884 26.3032 10.6863C26.1886 10.3842 26.0116 10.1654 25.772 10.03C25.5428 9.8842 25.2616 9.81128 24.9282 9.81128C24.5532 9.81128 24.2407 9.8894 23.9907 10.0457C23.7407 10.2019 23.5532 10.4259 23.4282 10.7175C23.3136 11.0092 23.2563 11.3582 23.2563 11.7644H18.8657C18.8657 11.0352 19.0063 10.3477 19.2876 9.7019C19.5688 9.04565 19.9803 8.47274 20.522 7.98315C21.0741 7.48315 21.7303 7.09253 22.4907 6.81128C23.2511 6.53003 24.1053 6.3894 25.0532 6.3894C26.1782 6.3894 27.1782 6.58211 28.0532 6.96753C28.9282 7.34253 29.6209 7.94149 30.1313 8.7644C30.6418 9.58732 30.897 10.655 30.897 11.9675V19.4988C30.897 20.4467 30.9438 21.2175 31.0376 21.8113C31.1418 22.405 31.2928 22.9154 31.4907 23.3425V23.6082H27.0845C26.8866 23.1394 26.7355 22.5561 26.6313 21.8582C26.5376 21.1498 26.4907 20.4363 26.4907 19.7175ZM27.022 13.28L27.0376 15.905H25.4282C25.0116 15.905 24.647 15.9727 24.3345 16.1082C24.0324 16.2436 23.7772 16.4363 23.5688 16.6863C23.3605 16.9259 23.2043 17.2071 23.1001 17.53C23.0063 17.8529 22.9595 18.1967 22.9595 18.5613C22.9595 18.9675 23.0168 19.3113 23.1313 19.5925C23.2459 19.8738 23.4178 20.0873 23.647 20.2332C23.8761 20.379 24.147 20.4519 24.4595 20.4519C24.9386 20.4519 25.3553 20.3529 25.7095 20.155C26.0636 19.9571 26.3241 19.7175 26.4907 19.4363C26.6678 19.155 26.7251 18.8946 26.6626 18.655L27.6626 20.3582C27.5376 20.7436 27.3657 21.1446 27.147 21.5613C26.9386 21.9779 26.673 22.3634 26.3501 22.7175C26.0272 23.0717 25.6261 23.3634 25.147 23.5925C24.6782 23.8113 24.1209 23.9207 23.4751 23.9207C22.5688 23.9207 21.7407 23.7123 20.9907 23.2957C20.2407 22.879 19.647 22.2957 19.2095 21.5457C18.7824 20.7957 18.5688 19.905 18.5688 18.8738C18.5688 18.0196 18.7043 17.2488 18.9751 16.5613C19.2563 15.8634 19.673 15.2748 20.2251 14.7957C20.7772 14.3061 21.4751 13.9311 22.3188 13.6707C23.1626 13.4102 24.1522 13.28 25.2876 13.28H27.022Z" fill="#0147FF"/>
<path d="M11.8501 16.03H16.397C16.3345 17.7384 15.9907 19.1811 15.3657 20.3582C14.7407 21.5248 13.8501 22.4102 12.6938 23.0144C11.548 23.6186 10.1626 23.9207 8.5376 23.9207C7.27718 23.9207 6.15739 23.7123 5.17822 23.2957C4.19906 22.8686 3.36572 22.2436 2.67822 21.4207C1.99072 20.5977 1.46989 19.5821 1.11572 18.3738C0.771973 17.155 0.600098 15.754 0.600098 14.1707V10.3113C0.600098 8.72795 0.782389 7.3269 1.14697 6.10815C1.52197 4.8894 2.05322 3.86857 2.74072 3.04565C3.43864 2.21232 4.27718 1.58732 5.25635 1.17065C6.24593 0.743571 7.36051 0.530029 8.6001 0.530029C10.2563 0.530029 11.6418 0.842529 12.7563 1.46753C13.8709 2.09253 14.7303 3.00399 15.3345 4.2019C15.9491 5.3894 16.3188 6.84253 16.4438 8.56128H11.8813C11.8501 7.47795 11.7251 6.62899 11.5063 6.0144C11.298 5.3894 10.9647 4.9519 10.5063 4.7019C10.048 4.44149 9.4126 4.31128 8.6001 4.31128C7.99593 4.31128 7.4751 4.42065 7.0376 4.6394C6.6001 4.84774 6.24072 5.18628 5.95947 5.65503C5.67822 6.12378 5.46989 6.73836 5.33447 7.49878C5.20947 8.2592 5.14697 9.18628 5.14697 10.28V14.1707C5.14697 15.2436 5.20426 16.1602 5.31885 16.9207C5.43343 17.6707 5.61572 18.2852 5.86572 18.7644C6.11572 19.2436 6.45426 19.5925 6.88135 19.8113C7.31885 20.03 7.87093 20.1394 8.5376 20.1394C9.30843 20.1394 9.92822 20.0248 10.397 19.7957C10.8761 19.5665 11.2303 19.155 11.4595 18.5613C11.6886 17.9675 11.8188 17.1238 11.8501 16.03Z" fill="#0147FF"/>
</svg>
